<?xml version="1.0" standalone="no"?>
<!DOCTYPE svg PUBLIC "-//W3C//DTD SVG 20010904//EN"
 "http://www.w3.org/TR/2001/REC-SVG-20010904/DTD/svg10.dtd">
<svg version="1.0" xmlns="http://www.w3.org/2000/svg"
 width="300.000000pt" height="294.000000pt" viewBox="0 0 300.000000 294.000000"
 preserveAspectRatio="xMidYMid meet">
<metadata>
Created by potrace 1.10, written by Peter Selinger 2001-2011
</metadata>
<g transform="translate(0.000000,294.000000) scale(0.100000,-0.100000)"
fill="#000000" stroke="none">
<path d="M1173 2268 l-30 -83 -84 -31 c-46 -17 -84 -37 -84 -44 0 -7 38 -27
84 -45 l84 -32 30 -82 c21 -58 34 -81 45 -79 8 2 27 38 44 83 l29 80 82 30
c52 19 82 36 82 45 0 9 -30 25 -82 44 l-82 30 -29 80 c-17 46 -36 82 -44 84
-11 2 -24 -22 -45 -80z m69 -56 l17 -58 61 -20 c33 -10 60 -22 60 -25 0 -3
-27 -14 -60 -24 l-61 -18 -17 -59 c-9 -32 -20 -58 -24 -58 -3 0 -15 26 -25 57
l-20 58 -64 22 c-36 12 -57 24 -49 27 119 42 112 37 133 99 10 31 22 57 25 57
4 0 15 -26 24 -58z"/>
<path d="M1990 2200 c0 -5 -9 -34 -20 -64 -20 -53 -22 -55 -86 -78 -80 -29
-80 -45 1 -74 59 -21 60 -22 86 -85 31 -78 51 -86 68 -27 25 81 35 93 100 113
94 28 88 45 -31 84 -32 11 -38 18 -59 76 -17 48 -28 65 -41 65 -10 0 -18 -4
-18 -10z m90 -160 c39 -10 55 -30 25 -30 -35 0 -66 -25 -77 -62 -14 -47 -24
-48 -33 -5 -10 44 -21 55 -61 63 -45 8 -43 21 5 34 33 9 42 16 52 48 18 58 21
59 36 9 12 -42 17 -47 53 -57z"/>
<path d="M944 1986 c-10 -27 0 -81 16 -81 11 0 16 13 18 48 2 37 0 47 -13 47
-8 0 -18 -6 -21 -14z"/>
<path d="M1206 1799 l-309 -120 -116 -95 c-64 -53 -116 -103 -116 -111 0 -8
46 -38 110 -71 l110 -57 3 -292 2 -291 93 -48 c50 -26 148 -77 217 -114 69
-37 171 -91 226 -120 l102 -53 293 158 c162 87 307 167 322 178 l28 19 -1 276
c-1 332 -2 302 9 302 19 0 211 112 210 123 0 7 -53 55 -117 108 l-117 96 -314
117 c-172 64 -316 115 -320 115 -3 -1 -145 -55 -315 -120z m304 -184 l0 -255
-37 23 c-33 20 -125 69 -445 237 -38 19 -68 37 -68 40 0 3 89 38 198 78 108
40 226 86 262 102 36 15 71 28 78 29 9 1 12 -56 12 -254z m325 151 c142 -53
260 -98 261 -99 2 -1 -45 -28 -104 -60 -259 -139 -301 -161 -365 -198 -38 -21
-72 -39 -75 -39 -4 0 -7 113 -7 251 0 218 2 249 15 246 8 -3 132 -48 275 -101z
m494 -278 c1 -3 -128 -77 -286 -162 -283 -154 -288 -156 -310 -139 -137 110
-172 143 -160 150 6 4 44 24 82 45 39 20 164 88 280 151 l209 114 92 -76 c51
-42 93 -79 93 -83z m-1222 47 c109 -58 240 -127 290 -153 51 -26 92 -50 90
-53 -1 -3 -44 -41 -94 -83 l-93 -78 -122 65 c-68 36 -186 97 -263 137 -77 41
-155 81 -172 90 l-33 17 98 81 c53 44 98 81 99 81 0 1 90 -46 200 -104z m1023
-472 l0 -268 -103 -54 c-56 -30 -187 -101 -292 -158 -104 -57 -189 -103 -190
-103 0 0 0 182 0 405 0 223 1 405 3 405 2 0 45 -36 97 -80 52 -44 100 -80 107
-80 7 0 94 45 193 100 99 54 181 99 183 99 1 1 2 -119 2 -266z m-1018 162 c99
-52 186 -95 192 -95 10 0 88 63 169 136 l37 35 0 -411 0 -410 -147 78 c-82 42
-212 111 -290 152 l-143 75 0 252 c0 138 -3 258 -6 267 -3 9 -3 16 0 16 4 0
88 -43 188 -95z"/>
<path d="M857 1903 c-20 -19 -5 -33 37 -33 46 0 69 16 45 31 -16 10 -73 12
-82 2z"/>
<path d="M993 1903 c-7 -2 -13 -11 -13 -18 0 -7 -9 -15 -21 -18 -17 -5 -20
-12 -17 -49 2 -30 7 -43 18 -43 11 0 16 13 18 48 l3 47 43 0 c49 0 61 7 45 27
-11 13 -52 16 -76 6z"/>
</g>
</svg>
