<?xml version="1.0" standalone="no"?>
<!DOCTYPE svg PUBLIC "-//W3C//DTD SVG 20010904//EN"
 "http://www.w3.org/TR/2001/REC-SVG-20010904/DTD/svg10.dtd">
<svg version="1.0" xmlns="http://www.w3.org/2000/svg"
 width="900.000000pt" height="993.000000pt" viewBox="0 0 900.000000 993.000000"
 preserveAspectRatio="xMidYMid meet">
<metadata>
Created by potrace 1.10, written by Peter Selinger 2001-2011
</metadata>
<g transform="translate(0.000000,993.000000) scale(0.100000,-0.100000)"
fill="#d2d2cfff" stroke="none">
<path d="M4335 9296 c-40 -17 -74 -59 -170 -209 -78 -123 -112 -157 -155 -157
-12 0 -45 -6 -73 -14 -29 -8 -89 -22 -135 -32 -99 -21 -146 -58 -157 -122 -9
-58 9 -91 135 -242 l113 -135 -7 -105 c-3 -58 -8 -145 -12 -195 -6 -86 -5 -92
22 -131 36 -55 85 -73 152 -56 40 11 165 60 301 118 38 17 66 9 241 -72 106
-48 153 -60 194 -50 39 10 85 54 95 94 10 33 4 161 -15 333 l-6 55 93 113
c143 172 159 197 159 245 0 46 -27 97 -62 119 -13 8 -57 22 -98 31 -73 17
-175 40 -235 55 -24 5 -42 26 -92 106 -35 55 -66 107 -70 115 -26 59 -77 119
-114 134 -47 19 -64 19 -104 2z m95 -476 c59 -97 90 -122 184 -145 43 -11 81
-25 83 -32 3 -7 -15 -37 -39 -66 -77 -91 -78 -95 -78 -212 0 -58 -4 -105 -9
-105 -5 0 -43 14 -84 30 -89 36 -114 37 -187 9 -144 -55 -144 -55 -130 53 12
96 4 121 -68 216 -31 41 -51 77 -46 81 5 5 43 17 84 27 41 10 86 26 99 36 14
11 49 55 78 98 29 44 57 80 62 80 5 0 28 -31 51 -70z"/>
<path d="M2940 8496 c-44 -25 -72 -73 -72 -126 0 -58 14 -79 93 -139 80 -61
237 -221 310 -316 171 -222 321 -501 405 -750 7 -22 20 -59 28 -82 17 -46 53
-175 66 -233 5 -19 18 -78 30 -130 33 -148 59 -333 49 -352 -5 -10 -37 -26
-72 -37 -34 -11 -75 -25 -92 -31 -16 -6 -131 -43 -255 -84 -408 -133 -1154
-378 -1235 -406 -44 -15 -208 -69 -365 -120 -394 -128 -398 -130 -434 -164
-17 -17 -89 -103 -161 -190 -71 -87 -164 -200 -207 -250 -365 -435 -499 -604
-510 -638 -20 -69 26 -150 97 -170 43 -13 224 -77 261 -93 21 -10 53 -21 69
-25 29 -9 148 -50 250 -88 l50 -18 5 -1179 c5 -1249 4 -1206 49 -1243 29 -23
162 -79 336 -142 50 -18 104 -39 120 -45 31 -13 82 -32 150 -58 69 -26 129
-49 160 -62 28 -12 64 -26 153 -59 77 -28 119 -45 197 -76 44 -18 96 -38 115
-45 62 -23 203 -76 290 -110 47 -18 135 -51 195 -74 61 -23 126 -48 145 -56
19 -7 73 -28 120 -45 47 -18 119 -46 160 -62 41 -17 92 -36 113 -44 20 -8 54
-20 75 -28 20 -8 84 -33 142 -55 58 -22 152 -59 210 -81 229 -90 327 -123 375
-128 58 -5 104 10 520 173 94 37 181 70 195 75 14 5 50 18 80 30 30 11 84 32
120 45 36 13 160 60 275 105 116 45 221 85 235 90 14 5 50 18 80 30 30 12 66
25 80 30 14 5 48 17 75 28 28 11 95 36 150 57 55 20 109 41 120 46 28 11 124
49 165 64 19 7 55 21 80 30 25 9 63 24 85 32 22 9 54 21 70 28 37 16 82 33
210 81 55 20 123 45 150 56 47 19 175 67 220 83 11 4 34 13 50 20 17 7 50 21
75 31 25 10 53 25 64 33 47 40 46 7 46 1244 0 1115 1 1165 18 1180 10 10 26
17 35 17 9 0 31 7 49 14 18 8 74 29 123 46 50 17 124 44 165 60 41 15 84 30
95 33 40 11 183 66 203 78 32 20 52 64 52 116 0 53 -5 62 -102 179 -59 73
-109 135 -242 299 -45 55 -83 102 -87 105 -3 3 -30 37 -61 75 -119 149 -245
304 -315 387 -87 103 -26 77 -673 288 -256 84 -517 170 -580 192 -63 22 -128
43 -145 48 -31 7 -378 122 -585 192 -63 22 -131 44 -150 49 -19 5 -114 35
-210 68 l-175 59 -3 42 c-4 49 18 172 75 425 17 76 67 249 88 305 64 174 112
285 175 405 146 282 340 529 542 691 84 68 98 88 98 142 0 85 -54 142 -135
142 -63 0 -126 -43 -264 -179 -132 -131 -168 -171 -253 -286 -202 -273 -406
-695 -483 -1000 -65 -257 -76 -306 -100 -435 -8 -47 -15 -95 -15 -106 0 -44
-21 -46 -121 -14 -116 37 -152 38 -267 0 -87 -28 -122 -36 -122 -26 0 2 -6 39
-14 82 -8 44 -17 93 -19 109 -18 105 -65 304 -111 460 -87 299 -266 660 -451
910 -144 194 -365 415 -471 470 -36 18 -91 19 -124 1z m1552 -2291 c121 -44
110 -16 106 -253 -3 -227 0 -245 55 -286 21 -15 43 -21 83 -21 46 0 58 4 83
30 43 43 61 123 61 267 0 64 4 119 9 122 7 5 543 -166 796 -254 44 -15 208
-69 365 -120 157 -50 301 -98 320 -105 19 -7 58 -21 85 -29 132 -42 332 -109
345 -117 11 -5 2 -13 -33 -28 -27 -12 -53 -21 -59 -21 -5 0 -62 -18 -126 -40
-65 -23 -346 -118 -627 -211 -280 -94 -546 -183 -590 -198 -44 -16 -129 -45
-190 -64 -60 -20 -157 -52 -215 -73 -58 -20 -118 -41 -135 -45 -16 -4 -121
-39 -233 -77 l-203 -69 -102 33 c-125 41 -331 110 -372 124 -16 6 -223 76
-460 155 -236 79 -443 149 -460 155 -16 6 -97 33 -180 60 -204 67 -473 157
-510 170 -16 6 -99 34 -183 62 -84 27 -151 55 -150 60 5 13 16 17 568 198 256
84 501 165 545 180 287 99 767 251 780 246 15 -6 16 -12 19 -243 2 -93 17
-125 77 -155 43 -22 69 -22 118 -2 72 29 75 41 81 288 l5 220 90 32 c110 40
148 41 237 9z m-2811 -980 c57 -19 174 -58 259 -86 85 -27 165 -54 177 -59 13
-5 278 -95 590 -199 313 -105 582 -195 598 -201 34 -12 285 -96 515 -171 85
-28 169 -56 185 -63 17 -8 44 -16 62 -20 17 -4 37 -14 44 -22 13 -16 16 -12
-112 -149 -133 -142 -235 -252 -289 -310 -218 -236 -325 -345 -340 -345 -14 0
-215 67 -345 116 -38 14 -178 64 -350 124 -44 16 -138 49 -210 75 -71 26 -186
66 -255 90 -69 24 -150 53 -180 65 -30 12 -111 41 -180 65 -69 24 -156 55
-195 68 -119 44 -355 127 -470 168 -60 21 -135 48 -165 59 -30 12 -70 26 -87
31 -18 6 -33 16 -33 23 0 8 39 61 88 118 48 57 105 126 127 153 22 26 90 108
150 180 61 73 146 176 190 229 55 67 86 96 101 96 12 0 68 -16 125 -35z m5703
-150 c81 -99 196 -238 255 -310 174 -212 213 -264 209 -281 -2 -9 -19 -22 -38
-29 -117 -42 -224 -79 -285 -100 -38 -13 -95 -33 -125 -45 -30 -11 -86 -32
-125 -45 -87 -30 -145 -51 -310 -110 -71 -26 -141 -51 -155 -55 -14 -5 -70
-25 -125 -45 -55 -20 -131 -47 -170 -60 -38 -13 -95 -33 -125 -45 -30 -11 -93
-34 -140 -50 -47 -16 -123 -43 -170 -60 -47 -17 -116 -42 -155 -55 -38 -13
-108 -38 -155 -56 -47 -17 -103 -37 -125 -45 -22 -7 -85 -29 -140 -49 -55 -19
-108 -35 -118 -35 -21 0 -12 -9 -147 140 -57 63 -132 144 -166 180 -34 36
-106 115 -161 176 -56 62 -109 120 -119 131 -65 67 -144 156 -144 164 0 14 30
26 291 114 140 46 268 89 284 95 67 23 364 122 425 142 36 11 97 32 135 45 39
13 138 46 220 73 83 27 164 54 180 60 17 6 203 69 415 140 212 71 399 134 415
140 137 48 173 58 196 57 21 -2 56 -38 173 -182z m-3139 -1315 c-3 -168 -7
-897 -11 -1620 -4 -1079 -8 -1317 -19 -1329 -11 -11 -17 -11 -42 2 -29 15 -54
25 -230 91 -21 8 -72 28 -113 44 -41 17 -120 47 -175 68 -55 20 -120 44 -145
54 -25 10 -101 39 -169 64 -69 26 -145 55 -170 66 -25 10 -84 33 -131 50 -88
33 -170 65 -205 79 -11 5 -39 16 -62 25 -71 27 -126 48 -163 61 -19 8 -87 33
-150 58 -63 24 -153 59 -200 77 -47 17 -99 38 -117 46 -17 8 -34 14 -39 14 -8
0 -146 52 -199 75 -16 7 -49 20 -72 29 -24 9 -61 23 -83 31 -22 8 -59 22 -82
31 -24 8 -63 25 -88 37 l-45 22 -3 1048 c-2 892 0 1048 12 1053 14 5 86 -17
291 -91 55 -20 150 -54 210 -75 61 -22 135 -49 165 -60 30 -12 73 -27 95 -35
77 -25 270 -94 325 -115 30 -12 69 -26 85 -30 27 -8 152 -52 265 -94 25 -9 92
-33 150 -53 58 -19 139 -49 180 -64 41 -16 94 -29 118 -29 53 0 49 -5 477 455
72 77 163 176 204 220 99 107 123 127 133 112 5 -7 6 -149 3 -317z m425 190
c57 -63 109 -120 114 -126 40 -42 126 -136 216 -234 287 -315 280 -308 353
-297 30 4 373 120 557 188 47 17 110 39 140 49 30 10 93 32 140 50 47 17 117
42 155 55 39 13 95 33 125 45 30 12 66 25 80 30 14 4 84 29 155 55 460 165
486 174 503 175 10 0 12 -214 10 -1056 l-3 -1057 -90 -35 c-49 -19 -106 -41
-125 -48 -19 -7 -75 -28 -125 -48 -49 -19 -121 -46 -160 -61 -38 -14 -86 -32
-105 -40 -59 -23 -191 -73 -280 -106 -47 -17 -98 -37 -115 -44 -28 -12 -62
-26 -152 -59 -21 -8 -58 -22 -83 -31 -25 -9 -63 -24 -85 -32 -22 -9 -53 -21
-70 -28 -16 -6 -70 -27 -120 -45 -49 -17 -124 -46 -165 -62 -41 -17 -91 -36
-110 -43 -89 -33 -204 -77 -305 -116 -60 -23 -150 -57 -200 -76 -49 -19 -107
-41 -127 -49 -54 -20 -117 -44 -163 -61 -22 -8 -54 -21 -71 -28 -23 -10 -35
-10 -42 -3 -8 8 -9 484 -6 1632 3 892 7 1627 10 1634 6 20 27 1 144 -128z"/>
<path d="M2613 7759 c-29 -8 -103 -81 -103 -101 0 -5 -12 -27 -27 -51 -33 -50
-38 -59 -81 -130 -17 -30 -38 -59 -45 -64 -6 -5 -50 -18 -97 -27 -265 -55
-295 -66 -328 -125 -12 -22 -22 -52 -22 -69 0 -33 52 -109 157 -230 104 -119
97 -94 83 -311 -10 -174 -10 -193 6 -226 18 -38 75 -75 116 -75 31 0 141 38
277 96 l112 47 107 -47 c236 -105 266 -112 322 -74 19 13 43 40 54 61 16 34
17 48 7 150 -14 140 -14 274 -1 282 21 13 216 238 232 268 37 69 10 150 -62
188 -19 10 -73 25 -120 35 -123 25 -242 52 -247 58 -2 2 -46 73 -97 157 -51
84 -104 161 -117 171 -31 22 -85 29 -126 17z m72 -444 c20 -39 82 -130 96
-142 15 -12 101 -37 162 -48 50 -8 48 -25 -13 -92 -78 -85 -84 -101 -77 -211
4 -71 2 -94 -7 -98 -7 -3 -40 7 -72 21 -90 40 -128 42 -214 10 -41 -15 -85
-29 -97 -32 l-23 -5 6 103 6 104 -53 73 c-29 39 -56 72 -61 72 -4 0 -8 11 -8
24 0 24 21 36 66 36 11 0 44 7 73 16 61 18 98 53 144 136 33 61 53 70 72 33z"/>
<path d="M6053 7759 c-39 -12 -69 -50 -167 -214 -43 -71 -79 -131 -81 -133 -4
-5 -128 -35 -235 -57 -87 -19 -148 -43 -167 -67 -6 -7 -16 -30 -23 -52 -20
-61 -2 -97 116 -236 58 -69 111 -136 119 -150 11 -22 11 -45 -1 -150 -19 -172
-18 -245 4 -282 20 -34 78 -68 119 -68 15 0 103 32 196 72 l167 71 133 -55
c234 -99 262 -104 324 -59 66 48 70 66 49 278 -16 159 -16 186 -4 201 8 9 29
35 48 57 19 22 51 61 72 85 20 25 52 64 72 88 59 72 61 159 3 208 -45 38 -29
33 -302 93 l-80 17 -92 140 c-118 178 -120 182 -146 198 -30 20 -86 27 -124
15z m103 -478 c73 -111 110 -135 237 -156 22 -3 37 -11 37 -20 0 -8 -24 -44
-52 -80 -72 -90 -80 -117 -67 -217 7 -49 8 -83 2 -89 -6 -6 -36 1 -79 17 -124
46 -136 47 -217 18 -128 -46 -117 -53 -117 74 l0 110 -43 58 c-24 33 -51 65
-60 73 -9 7 -17 19 -17 27 0 16 31 34 60 34 37 0 135 40 153 63 10 12 36 53
58 90 22 38 46 66 52 64 7 -2 30 -31 53 -66z"/>
</g>
</svg>
