<?xml version="1.0" standalone="no"?>
<!DOCTYPE svg PUBLIC "-//W3C//DTD SVG 20010904//EN"
 "http://www.w3.org/TR/2001/REC-SVG-20010904/DTD/svg10.dtd">
<svg version="1.0" xmlns="http://www.w3.org/2000/svg"
 width="300.000000pt" height="275.000000pt" viewBox="0 0 300.000000 275.000000"
 preserveAspectRatio="xMidYMid meet">
<metadata>
Created by potrace 1.10, written by Peter Selinger 2001-2011
</metadata>
<g transform="translate(0.000000,275.000000) scale(0.100000,-0.100000)"
fill="#000000" stroke="none">
<path d="M1553 1919 c-14 -5 -33 -33 -53 -77 l-32 -69 -76 -12 c-128 -19 -143
-56 -57 -141 60 -59 63 -71 44 -159 -21 -100 26 -124 131 -68 l67 37 64 -35
c74 -40 88 -42 120 -16 23 18 23 19 10 101 l-14 83 57 53 c90 84 76 124 -49
145 l-75 12 -38 70 c-38 73 -61 90 -99 76z m58 -124 c16 -35 38 -69 48 -74 10
-6 48 -13 85 -17 36 -4 66 -8 66 -10 0 -1 -25 -26 -55 -55 -60 -57 -63 -68
-44 -159 6 -28 9 -54 6 -56 -2 -3 -31 11 -63 31 -33 19 -67 35 -76 35 -16 0
-98 -41 -126 -63 -21 -17 -22 -4 -8 67 8 37 12 75 9 84 -4 10 -31 40 -62 68
l-56 51 77 7 c87 9 94 14 133 99 15 31 29 57 31 57 3 0 18 -29 35 -65z"/>
<path d="M1062 1486 c-89 -24 -167 -47 -172 -52 -9 -9 -90 -244 -90 -262 0 -6
24 -19 53 -30 l52 -20 3 -261 2 -262 33 -14 c17 -7 160 -56 316 -109 l284 -96
76 26 c42 15 139 49 216 76 77 27 181 63 230 80 50 17 94 34 98 38 5 4 8 122
7 263 l-1 255 53 17 c88 29 88 26 25 172 -63 147 -40 130 -249 186 l-128 34 0
-33 c0 -36 -3 -35 135 -67 33 -8 53 -16 45 -19 -8 -2 -125 -41 -259 -85 l-243
-81 -232 78 c-127 43 -240 80 -250 82 -31 5 -31 28 0 28 15 0 63 9 106 21 74
20 78 22 78 50 0 17 -5 29 -12 28 -7 0 -86 -20 -176 -43z m158 -193 c151 -53
277 -98 279 -99 3 -3 -63 -175 -75 -195 -2 -3 -121 38 -265 92 -144 55 -268
99 -276 99 -8 0 -13 6 -11 13 12 46 63 187 67 187 3 0 130 -44 281 -97z m969
-1 c19 -48 34 -89 34 -92 -1 -3 -18 -10 -40 -17 -21 -6 -144 -47 -273 -92
-149 -51 -236 -76 -239 -69 -2 6 -22 47 -43 90 -22 44 -38 80 -36 82 7 5 544
184 553 185 6 1 25 -38 44 -87z m-621 -135 c7 -23 15 -47 18 -53 2 -6 -8 -17
-23 -25 -16 -8 -31 -18 -35 -24 -4 -5 -8 -144 -8 -309 0 -280 -1 -298 -17
-291 -10 4 -134 46 -275 94 l-257 86 -1 217 c0 119 -3 224 -7 234 -8 21 -25
27 257 -80 172 -64 228 -82 236 -73 18 18 55 128 58 169 2 21 9 45 17 55 11
13 11 15 1 9 -11 -7 -12 -4 -3 11 6 11 7 23 3 27 -3 4 0 4 9 1 8 -3 21 -25 27
-48z m542 -293 l-5 -228 -25 -7 c-43 -12 -423 -146 -464 -163 -21 -9 -39 -16
-40 -16 0 0 -1 142 -1 315 0 173 1 315 3 315 2 0 16 -29 31 -64 16 -35 33 -66
39 -70 8 -5 439 137 450 149 15 14 17 -25 12 -231z"/>
</g>
</svg>
